<mxfile host="app.diagrams.net" modified="2023-12-15T01:35:32.410Z" agent="Mozilla/5.0 (X11; Linux x86_64) AppleWebKit/537.36 (KHTML, like Gecko) Chrome/117.0.0.0 Safari/537.36" version="22.1.9" etag="azE93SOrhiw1uo86pTZp" type="github">
  <diagram name="Page-1" id="lRKATTKArUaNmHrks6sQ">
    <mxGraphModel>
      <root>
        <mxCell id="0" />
        <mxCell id="1" parent="0" />
      </root>
    </mxGraphModel>
  </diagram>
</mxfile>
